<?xml version="1.0" encoding="UTF-8" standalone="no"?>
<!-- Created with Inkscape (http://www.inkscape.org/) -->

<svg
   width="169.14107mm"
   height="64.770813mm"
   viewBox="0 0 169.14107 64.770813"
   version="1.1"
   id="svg5"
   xml:space="preserve"
   inkscape:version="1.2.2 (732a01da63, 2022-12-09)"
   sodipodi:docname="logo.svg"
   xmlns:inkscape="http://www.inkscape.org/namespaces/inkscape"
   xmlns:sodipodi="http://sodipodi.sourceforge.net/DTD/sodipodi-0.dtd"
   xmlns="http://www.w3.org/2000/svg"
   xmlns:svg="http://www.w3.org/2000/svg"><sodipodi:namedview
     id="namedview7"
     pagecolor="#ffffff"
     bordercolor="#000000"
     borderopacity="0.25"
     inkscape:showpageshadow="2"
     inkscape:pageopacity="0.0"
     inkscape:pagecheckerboard="0"
     inkscape:deskcolor="#d1d1d1"
     inkscape:document-units="mm"
     showgrid="false"
     inkscape:zoom="0.73851712"
     inkscape:cx="313.46599"
     inkscape:cy="163.84184"
     inkscape:window-width="1920"
     inkscape:window-height="1009"
     inkscape:window-x="-8"
     inkscape:window-y="-8"
     inkscape:window-maximized="1"
     inkscape:current-layer="layer1" /><defs
     id="defs2" /><g
     inkscape:label="Capa 1"
     inkscape:groupmode="layer"
     id="layer1"
     transform="translate(-13.403901,-14.073202)"><g
       id="g200"
       transform="matrix(0.26458333,0,0,0.26458333,13.390143,16.778689)"><path
         fill="#ffffff"
         d="m 585.56044,87.740452 c -9.39181,0 -17.33989,-3.252172 -23.84591,-9.757355 -6.50518,-6.505182 -9.75736,-14.367741 -9.75736,-23.586839 0,-9.219937 3.25218,-17.081658 9.75736,-23.58684 6.50602,-6.505182 14.4541,-9.758192 23.84591,-9.758192 9.30545,0 17.23173,3.273971 23.78051,9.82275 6.54794,6.54794 9.82275,14.388701 9.82275,23.522282 0,9.132742 -3.27481,16.973503 -9.82275,23.522282 -6.54878,6.547941 -14.47506,9.821912 -23.78051,9.821912 z m 0,-16.542564 c 4.48043,0 8.20714,-1.594646 11.17928,-4.782261 2.97299,-3.188453 4.45864,-7.19435 4.45864,-12.019369 0,-4.825019 -1.48565,-8.831755 -4.45864,-12.020208 -2.97214,-3.187615 -6.69885,-4.781422 -11.17928,-4.781422 -4.65315,0 -8.44442,1.572008 -11.3738,4.716864 -2.92939,3.144856 -4.39408,7.173391 -4.39408,12.084766 0,4.911374 1.46469,8.939071 4.39408,12.083927 2.92938,3.144856 6.72065,4.717703 11.3738,4.717703 z M 537.48212,14.448789 c 6.84976,0 12.2776,-5.4278318 12.2776,-12.1484843 0,-6.720652 -5.42784,-12.1493224 -12.2776,-12.1493224 -6.59154,0 -12.14932,5.4286704 -12.14932,12.1493224 0,6.7206525 5.55778,12.1484843 12.14932,12.1484843 z m -9.69364,72.25791 h 19.51555 v -64.62172 h -19.51555 z m -14.60165,0.721866 c 5.32554,0 9.65758,-4.332037 9.65758,-9.657584 0,-5.324709 -4.33204,-9.657584 -9.65758,-9.657584 -5.32555,0 -9.65759,4.332875 -9.65759,9.657584 0,5.325547 4.33204,9.657584 9.65759,9.657584 z m -51.41014,0.700068 c 8.65904,0 14.99151,-4.394917 17.57632,-7.884358 v 6.462424 h 19.51638 v -96.93216 l -19.51638,9.2174208 V 28.547403 c -2.58481,-3.489441 -8.91728,-7.88352 -17.57632,-7.88352 -16.93075,0 -29.98471,15.379696 -29.98471,33.732375 0,18.35184 13.05396,33.732375 29.98471,33.732375 z m 4.39408,-17.706269 c -8.789,0 -14.73413,-6.720653 -14.73413,-16.026106 0,-9.305454 5.94513,-16.026106 14.73413,-16.026106 8.78816,0 14.73328,6.720652 14.73328,16.026106 0,9.305453 -5.94512,16.026106 -14.73328,16.026106 z m -72.63435,17.318088 c -9.39181,0 -17.34073,-3.252172 -23.84591,-9.757355 -6.50518,-6.505182 -9.75735,-14.367741 -9.75735,-23.586839 0,-9.219937 3.25217,-17.081658 9.75735,-23.58684 6.50518,-6.505182 14.4541,-9.758192 23.84591,-9.758192 9.30545,0 17.23173,3.273971 23.78051,9.82275 6.54794,6.54794 9.82275,14.388701 9.82275,23.522282 0,9.132742 -3.27481,16.973503 -9.82275,23.522282 -6.54878,6.547941 -14.47506,9.821912 -23.78051,9.821912 z m 0,-16.542564 c 4.48043,0 8.2063,-1.594646 11.17928,-4.782261 2.97215,-3.188453 4.45864,-7.19435 4.45864,-12.019369 0,-4.825019 -1.48649,-8.831755 -4.45864,-12.020208 -2.97298,-3.187615 -6.69885,-4.781422 -11.17928,-4.781422 -4.65315,0 -8.44442,1.572008 -11.3738,4.716864 -2.92939,3.144856 -4.39408,7.173391 -4.39408,12.084766 0,4.911374 1.46469,8.939071 4.39408,12.083927 2.92938,3.144856 6.72065,4.717703 11.3738,4.717703 z m -98.61233,15.508811 v -33.86149 c 0,-10.339207 -3.7485,-15.509648 -11.24468,-15.509648 -5.08325,0 -9.00363,2.240217 -11.76114,6.720652 V 86.706699 H 254.212 v -64.62172 h 17.70627 v 4.524032 c 4.13585,-3.70491 9.30545,-5.557785 15.50965,-5.557785 7.49617,0 13.69953,2.800272 18.6109,8.400815 5.08325,-5.600543 12.01937,-8.400815 20.80837,-8.400815 8.78816,0 15.40066,2.671158 19.83833,8.013472 4.43768,5.341477 6.6561,12.277599 6.6561,20.807528 v 36.834473 h -17.70627 v -33.86149 c 0,-10.339207 -3.74767,-15.509648 -11.24385,-15.509648 -5.25596,0 -9.30545,2.37017 -12.14932,7.108833 0.25907,1.636566 0.38818,3.446682 0.38818,5.427832 v 36.834473 z"
         id="path182"
         style="stroke-width:0.838405" /><g
         fill="#07c1d8"
         id="g188"><path
           d="m 173.754,106.646 a 85.992,85.992 0 0 1 -21.984,-2.867 87.17,87.17 0 0 0 -0.985,12.976 c 0,7.386 0.927,14.511 2.694,21.347 -19.725,2.868 -37.249,12.455 -50.225,26.358 A 85.794,85.794 0 0 0 75.679,145.256 85.805,85.805 0 0 1 48.481,184.359 c 18.19,4.17 31.746,20.449 31.746,39.913 v 0.116 h 0.029 a 112.282,112.282 0 0 0 27.371,3.36 c 6.662,0 13.18,-0.608 19.552,-1.738 0.087,-0.029 0.174,-0.029 0.26,-0.029 0.87,-21.781 18.828,-39.16 40.87,-39.16 a 40.857,40.857 0 0 1 20.941,5.764 c 0.87,-0.898 1.68,-1.854 2.52,-2.81 9.674,-10.948 17.292,-23.75 22.158,-37.886 -0.029,-0.029 -0.058,-0.058 -0.087,-0.058 -11.296,-7.299 -18.798,-19.985 -18.798,-34.439 0,-4.982 0.898,-9.732 2.52,-14.135 a 85.222,85.222 0 0 1 -23.809,3.39 z"
           id="path184" /><path
           d="m 194.087,43.532 a 41.567,41.567 0 0 1 -5.503,2.288 40.868,40.868 0 0 1 -13.121,2.173 c -22.621,0 -40.956,-18.335 -40.956,-40.957 0,-0.29 0.029,-0.579 0.029,-0.869 -0.03,0 -0.058,0 -0.087,-0.029 a 112.527,112.527 0 0 0 -26.88,-3.244 c -6.661,0 -13.178,0.609 -19.522,1.738 -0.058,0 -0.145,0.03 -0.202,0.03 -0.927,21.81 -18.886,39.189 -40.928,39.189 a 40.732,40.732 0 0 1 -21,-5.793 l -0.086,0.087 A 112.067,112.067 0 0 0 1.269,78.637 c -0.03,0.058 -0.03,0.087 -0.058,0.145 11.296,7.3 18.798,19.986 18.798,34.44 0,14.945 -7.994,28.008 -19.957,35.163 v 0.028 c 0.03,0.087 0.058,0.203 0.087,0.29 A 112.156,112.156 0 0 0 21.254,187.4 c 18.74,-9.877 33.368,-26.445 40.696,-46.546 a 0.412,0.412 0 0 0 0.058,-0.174 c 3.302,-9.095 5.098,-18.914 5.098,-29.168 0,-6.893 -0.84,-13.613 -2.375,-20.043 18.19,-3.447 34.323,-12.629 46.488,-25.576 11.5,12.252 26.56,21.115 43.534,24.938 l 0.87,0.174 c 5.821,1.246 11.875,1.94 18.073,1.94 14.483,0 28.096,-3.59 40.059,-9.934 0.405,-0.26 0.81,-0.55 1.245,-0.811 A 111.347,111.347 0 0 0 194.087,43.532 Z"
           id="path186" /></g><g
         clip-path="url(#a)"
         transform="matrix(0.56458244,0,0,-0.56458244,183.48149,349.46958)"
         id="g469"><g
           fill="#414042"
           id="g429"
           style="fill:#ffffff"><path
             d="m 0,0 c -3.611,0 -6.636,-1.659 -9.09,-4.967 -2.441,-3.311 -3.668,-7.958 -3.668,-13.938 0,-5.993 1.166,-10.581 3.503,-13.778 2.333,-3.207 5.398,-4.804 9.2,-4.804 3.8,0 6.887,1.617 9.258,4.862 2.371,3.233 3.559,7.861 3.559,13.886 0,6.02 -1.227,10.654 -3.673,13.89 C 6.646,-1.617 3.616,0 0,0 m -0.055,-59.493 c -10.573,0 -19.195,3.46 -25.859,10.379 -6.655,6.925 -9.984,17.03 -9.984,30.314 0,13.292 3.367,23.356 10.101,30.209 6.736,6.844 15.431,10.269 26.082,10.269 10.649,0 19.251,-3.363 25.794,-10.109 6.555,-6.733 9.827,-16.94 9.827,-30.591 0,-13.661 -3.348,-23.822 -10.05,-30.49 -6.702,-6.654 -15.333,-9.981 -25.911,-9.981"
             transform="matrix(1.1310535,0,0,1.1310535,531.44953,355.31567)"
             id="path419"
             style="fill:#ffffff" /><path
             d="m 0,0 v -33.768 c 0,-1.577 0.116,-2.571 0.342,-2.988 0.224,-0.415 0.903,-0.623 2.029,-0.623 4.144,0 7.283,1.548 9.429,4.634 2.151,3.083 3.215,8.216 3.215,15.405 0,7.192 -1.113,11.878 -3.325,14.055 C 9.467,-1.102 5.946,0 1.129,0 Z m -21.675,-52.392 v 67.735 c 0,1.883 0.468,3.369 1.413,4.471 0.939,1.085 2.161,1.636 3.671,1.636 H 2.263 c 11.965,0 21.053,-3.018 27.257,-9.04 6.215,-6.02 9.322,-15.499 9.322,-28.447 0,-27.7 -11.821,-41.547 -35.456,-41.547 h -19.302 c -3.836,0 -5.759,1.727 -5.759,5.192"
             transform="matrix(1.1310535,0,0,1.1310535,607.8515,354.43097)"
             id="path421"
             style="fill:#ffffff" /><path
             d="m 0,0 c -3.612,0 -6.645,-1.659 -9.095,-4.967 -2.44,-3.311 -3.662,-7.958 -3.662,-13.938 0,-5.993 1.169,-10.581 3.499,-13.778 2.33,-3.207 5.398,-4.804 9.2,-4.804 3.801,0 6.89,1.617 9.258,4.862 2.372,3.233 3.56,7.861 3.56,13.886 0,6.02 -1.225,10.654 -3.671,13.89 C 6.642,-1.617 3.616,0 0,0 m -0.058,-59.493 c -10.577,0 -19.193,3.46 -25.851,10.379 -6.663,6.925 -9.993,17.03 -9.993,30.314 0,13.292 3.367,23.356 10.1,30.209 6.741,6.844 15.431,10.269 26.086,10.269 10.651,0 19.246,-3.363 25.797,-10.109 6.55,-6.733 9.822,-16.94 9.822,-30.591 0,-13.661 -3.349,-23.822 -10.05,-30.49 -6.699,-6.654 -15.338,-9.981 -25.911,-9.981"
             transform="matrix(1.1310535,0,0,1.1310535,700.81066,355.31567)"
             id="path423"
             style="fill:#ffffff" /><path
             d="m 0,0 c 0,-1.496 -3.721,-2.255 -11.176,-2.255 -7.448,0 -11.18,0.759 -11.18,2.255 v 56.681 h -13.545 c -1.281,0 -2.185,1.727 -2.71,5.198 -0.226,1.652 -0.334,3.343 -0.334,5.077 0,1.724 0.108,3.422 0.334,5.077 0.525,3.462 1.429,5.202 2.71,5.202 h 49.112 c 1.279,0 2.179,-1.74 2.712,-5.202 0.221,-1.655 0.335,-3.353 0.335,-5.077 0,-1.734 -0.114,-3.425 -0.335,-5.077 C 15.39,58.408 14.49,56.681 13.211,56.681 H 0 Z"
             transform="matrix(1.1310535,0,0,1.1310535,789.01132,291.33514)"
             id="path425"
             style="fill:#ffffff" /><path
             d="m 0,0 c -6.078,0.094 -13.034,-1.173 -13.034,-1.173 v -11.863 h 6.995 l -0.078,-5.288 c 0,-1.959 -1.942,-2.943 -5.815,-2.943 -3.878,0 -7.303,1.642 -10.274,4.917 -2.978,3.279 -4.459,8.072 -4.459,14.388 0,6.329 1.447,10.995 4.345,14.006 2.892,3.008 6.683,4.517 11.346,4.517 1.959,0 3.987,-0.316 6.096,-0.961 2.11,-0.639 3.519,-1.238 4.238,-1.799 0.713,-0.577 1.391,-0.85 2.032,-0.85 0.638,0 1.671,0.746 3.1,2.255 1.431,1.505 2.713,3.786 3.844,6.827 1.126,3.057 1.69,5.4 1.69,7.062 0,1.649 -0.036,2.786 -0.109,3.386 -1.581,1.73 -4.499,3.102 -8.755,4.122 -4.248,1.017 -9.011,1.522 -14.28,1.522 -11.594,0 -20.66,-3.65 -27.207,-10.95 -6.552,-7.303 -9.822,-16.783 -9.822,-28.452 0,-13.701 3.347,-24.087 10.041,-31.162 6.706,-7.074 15.51,-10.607 26.425,-10.607 5.87,0 11.08,0.505 15.632,1.522 4.557,1.013 7.586,2.053 9.093,3.105 l 0.452,35.33 C 11.496,-1.036 6.078,-0.104 0,0"
             transform="matrix(1.1310535,0,0,1.1310535,468.26549,336.71278)"
             id="path427"
             style="fill:#ffffff" /></g><g
           fill="#6d6e71"
           id="g451"
           style="fill:#ffffff"><path
             d="m 0,0 c -0.624,-1.28 -1.771,-2.454 -3.449,-3.516 -1.676,-1.069 -3.805,-1.6 -6.391,-1.6 -3.412,0 -6.156,1.075 -8.24,3.249 -2.076,2.157 -3.116,5.266 -3.116,9.323 v 10.116 c 0,3.969 0.98,7.013 2.946,9.138 1.962,2.108 4.59,3.177 7.872,3.177 3.208,0 5.695,-0.844 7.455,-2.513 1.755,-1.675 2.677,-4.015 2.757,-7.003 L -0.21,20.238 h -2.619 c -0.094,2.29 -0.759,4.057 -2.01,5.305 -1.244,1.238 -3.095,1.864 -5.539,1.864 -2.473,0 -4.432,-0.837 -5.866,-2.516 -1.43,-1.675 -2.143,-4.103 -2.143,-7.293 V 7.424 c 0,-3.308 0.771,-5.83 2.311,-7.567 1.54,-1.724 3.616,-2.588 6.236,-2.588 1.913,0 3.451,0.339 4.602,1.033 1.155,0.684 1.956,1.519 2.409,2.51 v 8.861 h -7.06 v 2.463 H 0 Z"
             transform="matrix(1.1310535,0,0,1.1310535,441.34721,235.75121)"
             id="path431"
             style="fill:#ffffff" /><path
             d="m 0,0 c 1.553,0 2.936,0.44 4.144,1.336 1.21,0.9 2.058,2.037 2.561,3.422 v 5.468 H 2.213 c -1.91,0 -3.44,-0.541 -4.585,-1.623 C -3.52,7.528 -4.088,6.185 -4.088,4.588 -4.088,3.239 -3.733,2.131 -3.014,1.277 -2.296,0.42 -1.292,0 0,0 M 7.124,-2.04 C 6.984,-1.164 6.875,-0.453 6.806,0.104 6.739,0.671 6.705,1.235 6.705,1.808 5.938,0.554 4.948,-0.486 3.725,-1.301 2.504,-2.122 1.146,-2.529 -0.35,-2.529 c -2.092,0 -3.701,0.648 -4.84,1.946 -1.132,1.303 -1.704,3.059 -1.704,5.276 0,2.343 0.823,4.223 2.473,5.618 1.649,1.395 3.89,2.092 6.709,2.092 h 4.417 v 3.106 c 0,1.786 -0.456,3.193 -1.351,4.21 -0.914,1.004 -2.17,1.512 -3.791,1.512 -1.508,0 -2.752,-0.479 -3.728,-1.45 -0.973,-0.965 -1.456,-2.144 -1.456,-3.549 l -2.623,0.023 -0.046,0.137 c -0.074,1.906 0.647,3.591 2.168,5.084 1.515,1.489 3.459,2.229 5.825,2.229 2.338,0 4.22,-0.711 5.657,-2.128 1.429,-1.431 2.146,-3.471 2.146,-6.124 V 3.057 c 0,-0.903 0.042,-1.78 0.121,-2.617 0.081,-0.848 0.212,-1.665 0.417,-2.48 z"
             transform="matrix(1.1310535,0,0,1.1310535,456.01527,232.82495)"
             id="path433"
             style="fill:#ffffff" /><path
             d="m 0,0 0.24,-3.923 c 0.664,1.404 1.554,2.486 2.657,3.255 1.107,0.759 2.41,1.138 3.906,1.138 1.527,0 2.814,-0.444 3.852,-1.343 1.039,-0.896 1.805,-2.252 2.292,-4.074 0.623,1.682 1.505,3.011 2.65,3.973 1.145,0.964 2.534,1.444 4.143,1.444 2.217,0 3.937,-0.897 5.156,-2.692 1.224,-1.799 1.834,-4.559 1.834,-8.288 v -14.765 h -2.823 v 14.814 c 0,3.1 -0.429,5.283 -1.263,6.538 -0.839,1.257 -2.042,1.89 -3.598,1.89 -1.637,0 -2.915,-0.691 -3.834,-2.096 -0.914,-1.405 -1.478,-3.161 -1.683,-5.282 v -0.655 -15.209 H 10.72 v 14.798 c 0,3.027 -0.424,5.194 -1.292,6.488 -0.864,1.294 -2.066,1.936 -3.609,1.936 -1.475,0 -2.668,-0.45 -3.562,-1.342 -0.9,-0.897 -1.54,-2.125 -1.928,-3.683 V -25.275 H -2.477 V 0 Z"
             transform="matrix(1.1310535,0,0,1.1310535,476.7303,259.10521)"
             id="path435"
             style="fill:#ffffff" /><path
             d="m 0,0 c -1.758,0 -3.202,-0.802 -4.334,-2.402 -1.133,-1.606 -1.718,-3.585 -1.765,-5.944 h 11.66 v 1.082 c 0,2.086 -0.489,3.823 -1.469,5.201 C 3.106,-0.684 1.745,0 0,0 m 0.397,-23.76 c -2.725,0 -4.954,1.026 -6.685,3.073 -1.726,2.043 -2.591,4.657 -2.591,7.841 v 4.197 c 0,3.19 0.867,5.85 2.602,7.965 1.739,2.105 3.828,3.158 6.277,3.158 2.648,0 4.699,-0.939 6.164,-2.823 1.468,-1.887 2.201,-4.422 2.201,-7.603 v -2.773 H -6.099 v -2.102 c 0,-2.447 0.586,-4.484 1.752,-6.11 1.168,-1.63 2.755,-2.438 4.744,-2.438 1.382,0 2.585,0.244 3.588,0.724 1.003,0.491 1.863,1.179 2.578,2.082 l 1.149,-1.988 C 6.949,-21.525 5.96,-22.307 4.753,-22.887 3.549,-23.464 2.094,-23.76 0.397,-23.76"
             transform="matrix(1.1310535,0,0,1.1310535,522.82277,256.83868)"
             id="path437"
             style="fill:#ffffff" /><path
             d="M 0,0 C -1.763,0 -3.21,-0.802 -4.341,-2.402 -5.467,-4.008 -6.053,-5.987 -6.104,-8.346 H 5.559 v 1.082 c 0,2.086 -0.488,3.823 -1.474,5.201 C 3.104,-0.684 1.744,0 0,0 m 0.394,-23.76 c -2.726,0 -4.951,1.026 -6.679,3.073 -1.733,2.043 -2.6,4.657 -2.6,7.841 v 4.197 c 0,3.19 0.871,5.85 2.602,7.965 1.744,2.105 3.834,3.158 6.283,3.158 2.643,0 4.703,-0.939 6.164,-2.823 1.463,-1.887 2.197,-4.422 2.197,-7.603 v -2.773 H -6.104 v -2.102 c 0,-2.447 0.587,-4.484 1.76,-6.11 1.162,-1.63 2.742,-2.438 4.738,-2.438 1.387,0 2.585,0.244 3.585,0.724 1.007,0.491 1.866,1.179 2.589,2.082 l 1.141,-1.988 c -0.764,-0.968 -1.75,-1.75 -2.959,-2.33 -1.204,-0.577 -2.658,-0.873 -4.356,-0.873"
             transform="matrix(1.1310535,0,0,1.1310535,558.0805,256.83868)"
             id="path439"
             style="fill:#ffffff" /><path
             d="m 0,0 0.23,-4.178 c 0.674,1.483 1.564,2.634 2.682,3.435 1.108,0.805 2.413,1.213 3.914,1.213 2.258,0 3.988,-0.835 5.189,-2.513 1.214,-1.675 1.815,-4.279 1.815,-7.812 v -15.42 h -2.825 v 15.394 c 0,2.888 -0.423,4.905 -1.264,6.075 -0.836,1.17 -2.065,1.753 -3.665,1.753 -1.435,0 -2.638,-0.466 -3.603,-1.414 C 1.504,-4.406 0.782,-5.657 0.301,-7.234 V -25.275 H -2.504 V 0 Z"
             transform="matrix(1.1310535,0,0,1.1310535,575.91679,259.10521)"
             id="path441"
             style="fill:#ffffff" /><path
             d="m 0,0 c 0,-2.565 0.486,-4.605 1.472,-6.123 0.974,-1.532 2.457,-2.288 4.436,-2.288 1.356,0 2.498,0.361 3.435,1.101 0.934,0.74 1.672,1.77 2.218,3.077 v 12.52 c -0.525,1.346 -1.246,2.434 -2.157,3.272 -0.91,0.824 -2.062,1.238 -3.448,1.238 -1.975,0 -3.468,-0.86 -4.46,-2.587 C 0.497,8.48 0,6.224 0,3.454 Z m -2.833,3.454 c 0,3.582 0.723,6.459 2.177,8.627 1.442,2.157 3.448,3.239 6.004,3.239 1.419,0 2.664,-0.346 3.728,-1.04 1.066,-0.681 1.947,-1.678 2.654,-2.946 l 0.274,3.516 h 2.381 v -25.298 c 0,-3.239 -0.751,-5.749 -2.26,-7.525 -1.511,-1.769 -3.657,-2.665 -6.428,-2.665 -0.996,0 -2.067,0.156 -3.212,0.459 -1.147,0.303 -2.162,0.701 -3.052,1.2 l 0.776,2.463 c 0.759,-0.492 1.608,-0.873 2.548,-1.141 0.932,-0.277 1.895,-0.41 2.894,-0.41 2.009,0 3.498,0.645 4.46,1.932 0.966,1.304 1.45,3.19 1.45,5.687 v 3.057 c -0.717,-1.138 -1.597,-2.011 -2.64,-2.614 -1.039,-0.606 -2.253,-0.909 -3.622,-0.909 -2.539,0 -4.53,0.994 -5.968,2.982 C -2.11,-5.948 -2.833,-3.301 -2.833,0 Z"
             transform="matrix(1.1310535,0,0,1.1310535,600.8685,242.30884)"
             id="path443"
             style="fill:#ffffff" /><path
             d="m 627.82321,230.5176 h -3.20089 v 28.58738 h 3.20089 z m 0,36.72644 h -3.20089 v 4.50385 h 3.20089 z"
             id="path445"
             style="fill:#ffffff" /><path
             d="m 0,0 0.23,-4.178 c 0.676,1.483 1.562,2.634 2.678,3.435 1.115,0.805 2.422,1.213 3.916,1.213 2.258,0 3.995,-0.835 5.199,-2.513 1.211,-1.675 1.807,-4.279 1.807,-7.812 v -15.42 h -2.825 v 15.394 c 0,2.888 -0.422,4.905 -1.261,6.075 -0.843,1.17 -2.063,1.753 -3.668,1.753 -1.434,0 -2.635,-0.466 -3.599,-1.414 C 1.51,-4.406 0.785,-5.657 0.306,-7.234 V -25.275 H -2.503 V 0 Z"
             transform="matrix(1.1310535,0,0,1.1310535,638.15379,259.10521)"
             id="path447"
             style="fill:#ffffff" /><path
             d="M 0,0 C -1.763,0 -3.208,-0.802 -4.334,-2.402 -5.463,-4.008 -6.052,-5.987 -6.102,-8.346 H 5.56 v 1.082 c 0,2.086 -0.486,3.823 -1.47,5.201 C 3.109,-0.684 1.747,0 0,0 m 0.401,-23.76 c -2.733,0 -4.958,1.026 -6.681,3.073 -1.73,2.043 -2.595,4.657 -2.595,7.841 v 4.197 c 0,3.19 0.865,5.85 2.6,7.965 1.739,2.105 3.831,3.158 6.275,3.158 2.646,0 4.706,-0.939 6.172,-2.823 1.462,-1.887 2.195,-4.422 2.195,-7.603 v -2.773 H -6.102 v -2.102 c 0,-2.447 0.59,-4.484 1.757,-6.11 1.166,-1.63 2.748,-2.438 4.746,-2.438 1.382,0 2.579,0.244 3.578,0.724 1.012,0.491 1.869,1.179 2.591,2.082 l 1.147,-1.988 c -0.769,-0.968 -1.755,-1.75 -2.962,-2.33 -1.203,-0.577 -2.658,-0.873 -4.354,-0.873"
             transform="matrix(1.1310535,0,0,1.1310535,669.70883,256.83868)"
             id="path449"
             style="fill:#ffffff" /></g><path
           d="m 0,0 c 0,0 -0.325,1.994 -0.515,1.976 l -36.182,-3.491 c -2.879,-0.278 -5.115,-2.574 -5.317,-5.459 l -0.994,-14.247 -27.992,-1.997 -1.904,12.912 c -0.424,2.872 -2.932,5.037 -5.835,5.037 h -38.188 c -2.902,0 -5.41,-2.165 -5.834,-5.037 l -1.905,-12.912 -27.992,1.997 -0.994,14.247 c -0.202,2.886 -2.438,5.182 -5.317,5.46 l -36.2,3.49 c -0.187,0.018 -0.324,-1.978 -0.511,-1.978 l -0.049,-7.83 30.658,-4.944 1.004,-14.374 c 0.203,-2.91 2.551,-5.263 5.463,-5.472 l 38.551,-2.75 c 0.146,-0.01 0.29,-0.016 0.434,-0.016 2.897,0 5.401,2.166 5.825,5.038 l 1.959,13.286 h 28.005 l 1.959,-13.286 c 0.423,-2.871 2.93,-5.037 5.831,-5.037 0.142,0 0.284,0.005 0.423,0.015 l 38.556,2.75 c 2.911,0.209 5.26,2.562 5.463,5.472 l 1.003,14.374 30.645,4.966 z"
           fill="#ffffff"
           transform="matrix(1.1310535,0,0,1.1310535,348.13109,279.2668)"
           id="path453" /><path
           d="m 0,0 v -47.514 -6.035 -5.492 c 0.108,-0.001 0.216,-0.005 0.323,-0.015 l 36.196,-3.49 c 1.896,-0.183 3.382,-1.709 3.514,-3.609 l 1.116,-15.978 31.574,-2.253 2.175,14.747 c 0.282,1.912 1.922,3.329 3.856,3.329 h 38.188 c 1.933,0 3.573,-1.417 3.855,-3.329 l 2.175,-14.747 31.575,2.253 1.115,15.978 c 0.133,1.9 1.618,3.425 3.514,3.609 l 36.182,3.49 c 0.107,0.01 0.214,0.014 0.322,0.015 v 4.711 l 0.015,0.005 V 0 c 5.09692,6.4164715 9.92323,13.494208 13.621,19.449 -5.651,9.62 -12.575,18.217 -19.976,26.182 -6.864,-3.455 -13.531,-7.369 -19.828,-11.534 -3.151,3.132 -6.7,5.694 -10.186,8.372 -3.425,2.751 -7.285,4.768 -10.946,7.118 1.09,8.117 1.629,16.108 1.846,24.448 -9.446,4.754 -19.519,7.906 -29.708,10.17 -4.068,-6.837 -7.788,-14.241 -11.028,-21.479 -3.842,0.642 -7.702,0.88 -11.567,0.926 v 0.006 c -0.027,0 -0.052,-0.006 -0.075,-0.006 -0.024,0 -0.049,0.006 -0.073,0.006 V 63.652 C 93.903,63.606 90.046,63.368 86.203,62.726 82.965,69.964 79.247,77.368 75.173,84.205 64.989,81.941 54.915,78.789 45.47,74.035 45.686,65.695 46.225,57.704 47.318,49.587 43.65,47.237 39.795,45.22 36.369,42.469 32.888,39.791 29.333,37.229 26.181,34.097 19.884,38.262 13.219,42.176 6.353,45.631 -1.048,37.666 -7.968,29.069 -13.621,19.449 -9.1783421,12.475308 -4.4130298,5.4661124 0,0 Z"
           fill="#478cbf"
           transform="matrix(1.1310535,0,0,1.1310535,126.80608,346.04533)"
           id="path455" /><path
           d="m 0,0 -1.121,-16.063 c -0.135,-1.936 -1.675,-3.477 -3.611,-3.616 l -38.555,-2.751 c -0.094,-0.007 -0.188,-0.01 -0.281,-0.01 -1.916,0 -3.569,1.406 -3.852,3.33 l -2.211,14.994 H -81.09 l -2.211,-14.994 c -0.297,-2.018 -2.101,-3.469 -4.133,-3.32 l -38.555,2.751 c -1.936,0.139 -3.476,1.68 -3.611,3.616 L -130.721,0 -163.268,3.138 c 0.015,-3.498 0.06,-7.33 0.06,-8.093 0,-34.374 43.605,-50.896 97.781,-51.086 h 0.066 0.067 c 54.176,0.19 97.766,16.712 97.766,51.086 0,0.777 0.047,4.593 0.063,8.093 z"
           fill="#478cbf"
           transform="matrix(1.1310535,0,0,1.1310535,311.40329,266.88437)"
           id="path457" /><path
           d="m 0,0 c 0,-12.052 -9.765,-21.815 -21.813,-21.815 -12.042,0 -21.81,9.763 -21.81,21.815 0,12.044 9.768,21.802 21.81,21.802 C -9.765,21.802 0,12.044 0,0"
           fill="#ffffff"
           transform="matrix(1.1310535,0,0,1.1310535,204.11393,318.93771)"
           id="path459" /><path
           d="m 0,0 c 0,-7.994 -6.479,-14.473 -14.479,-14.473 -7.996,0 -14.479,6.479 -14.479,14.473 0,7.994 6.483,14.479 14.479,14.479 C -6.479,14.479 0,7.994 0,0"
           fill="#414042"
           transform="matrix(1.1310535,0,0,1.1310535,198.17748,317.47435)"
           id="path461" /><path
           d="m 0,0 c -3.878,0 -7.021,2.858 -7.021,6.381 v 20.081 c 0,3.52 3.143,6.381 7.021,6.381 3.878,0 7.028,-2.861 7.028,-6.381 V 6.381 C 7.028,2.858 3.878,0 0,0"
           fill="#ffffff"
           transform="matrix(1.1310535,0,0,1.1310535,237.47503,292.01909)"
           id="path463" /><path
           d="m 0,0 c 0,-12.052 9.765,-21.815 21.815,-21.815 12.041,0 21.808,9.763 21.808,21.815 0,12.044 -9.767,21.802 -21.808,21.802 C 9.765,21.802 0,12.044 0,0"
           fill="#ffffff"
           transform="matrix(1.1310535,0,0,1.1310535,270.84021,318.93771)"
           id="path465" /><path
           d="m 0,0 c 0,-7.994 6.477,-14.473 14.471,-14.473 8.002,0 14.479,6.479 14.479,14.473 0,7.994 -6.477,14.479 -14.479,14.479 C 6.477,14.479 0,7.994 0,0"
           fill="#414042"
           transform="matrix(1.1310535,0,0,1.1310535,276.77813,317.47435)"
           id="path467" /></g></g></g></svg>
